<?xml version="1.0" encoding="UTF-8"?>
<svg version="1.1" xmlns="http://www.w3.org/2000/svg" width="250" height="250">
<path d="M0 0 C82.5 0 165 0 250 0 C250 82.5 250 165 250 250 C167.5 250 85 250 0 250 C0 167.5 0 85 0 0 Z " fill="#010101" transform="translate(0,0)"/>
<path d="M0 0 C82.5 0 165 0 250 0 C250 82.5 250 165 250 250 C167.5 250 85 250 0 250 C0 167.5 0 85 0 0 Z M101 6 C100.37432129 6.13422363 99.74864258 6.26844727 99.10400391 6.40673828 C86.90711909 9.06643087 75.87056599 12.92369067 65.23046875 19.60546875 C63.36573906 20.77133302 61.43854587 21.83649328 59.5 22.875 C51.72055135 27.29680926 45.15111238 33.57798371 39 40 C38.195625 40.78375 37.39125 41.5675 36.5625 42.375 C35.716875 43.24125 34.87125 44.1075 34 45 C33.43925781 45.54140625 32.87851562 46.0828125 32.30078125 46.640625 C12.89619417 66.63561533 3.56811394 96.97244461 3.5 124.3125 C4.02256302 156.55801781 14.99477281 186.03140534 38 209 C38.63035156 209.81855469 39.26070312 210.63710937 39.91015625 211.48046875 C42.43812111 214.52820209 45.32125453 216.90351499 48.4375 219.3125 C49.05367187 219.79033936 49.66984375 220.26817871 50.3046875 220.76049805 C65.3707107 232.26220518 81.73033629 239.31439063 100 244 C100.95777344 244.24878906 101.91554688 244.49757812 102.90234375 244.75390625 C132.43181419 250.95466142 164.87298252 243.30069049 190.21337891 227.63134766 C194.28496596 224.93468266 198.17038882 222.03177552 202 219 C202.8971875 218.30519531 203.794375 217.61039063 204.71875 216.89453125 C207.54682446 214.54587352 209.67771161 211.84480328 212 209 C212.763125 208.2575 213.52625 207.515 214.3125 206.75 C236.96766935 183.56796625 246.44508779 152.66418692 246.43676758 120.75341797 C245.75126516 90.87162842 233.44460869 61.86502467 212 41 C210.87271484 39.59427734 210.87271484 39.59427734 209.72265625 38.16015625 C195.49020585 20.97449202 170.35408151 10.20565822 149 6 C147.59041016 5.69449219 147.59041016 5.69449219 146.15234375 5.3828125 C131.59638028 2.6406568 115.4568381 2.81337442 101 6 Z " fill="#FEFEFE" transform="translate(0,0)"/>
<path d="M0 0 C13.836105 2.3060175 13.836105 2.3060175 20.4765625 4.42578125 C21.21272797 4.65524948 21.94889343 4.88471771 22.70736694 5.12113953 C24.24268197 5.60210551 25.77675722 6.08704685 27.30957031 6.57592773 C29.62456212 7.3123607 31.94458828 8.03092488 34.265625 8.74804688 C47.87406928 13.00946623 61.96913634 17.74774074 69.74609375 30.546875 C75.38863971 41.58587457 76.18588232 56.42320751 72.4375 68.25 C69.75464808 74.46543274 65.17867987 78.37730988 59 81 C56.95703125 81.30078125 56.95703125 81.30078125 54.8125 81.3125 C54.11769531 81.32925781 53.42289063 81.34601563 52.70703125 81.36328125 C50.0564212 81.00757168 47.85595407 80.3386537 45.33081055 79.47729492 C44.51992477 79.20213547 43.709039 78.92697601 42.87358093 78.64347839 C42.25529922 78.43113052 41.63701752 78.21878265 41 78 C40.99413376 77.38247864 40.98826752 76.76495728 40.98222351 76.12872314 C40.91831656 69.70465317 40.83390378 63.28108542 40.73754883 56.85742188 C40.70428323 54.45970275 40.67625645 52.06190501 40.65356445 49.6640625 C40.6200492 46.21840901 40.56773345 42.77347705 40.51171875 39.328125 C40.50532883 38.25508118 40.4989389 37.18203735 40.49235535 36.07647705 C40.47256119 35.07574158 40.45276703 34.0750061 40.43237305 33.04394531 C40.41571846 31.72490204 40.41571846 31.72490204 40.39872742 30.37921143 C39.9158796 27.49805251 39.01277614 26.09545596 37 24 C34.41537838 23.58282721 34.41537838 23.58282721 32 24 C30.40895419 25.59104581 30.85873908 27.24124253 30.84178162 29.44813538 C30.82709839 30.88901772 30.82709839 30.88901772 30.81211853 32.35900879 C30.80636307 33.42139771 30.8006076 34.48378662 30.79467773 35.57836914 C30.77982834 37.24644875 30.77982834 37.24644875 30.76467896 38.94822693 C30.73295477 42.64384798 30.70826353 46.33948191 30.68359375 50.03515625 C30.66303364 52.58963872 30.64203744 55.14411771 30.62062073 57.69859314 C30.57096433 63.74758491 30.52572441 69.7965943 30.48259836 75.84563488 C30.43326753 82.73068575 30.37833405 89.61568831 30.32291877 96.50069249 C30.20902397 110.66708325 30.10220134 124.83352039 30 139 C19.85801317 136.40182809 10.00654315 133.15996099 0 130 C0 87.1 0 44.2 0 0 Z " fill="#F8F8F8" transform="translate(99,50)"/>
<path d="M0 0 C0.33 0 0.66 0 1 0 C1.14695313 1.01835937 1.29390625 2.03671875 1.4453125 3.0859375 C2.69104786 11.14522002 4.36195547 18.87891611 6.9375 26.625 C7.29835693 27.72400635 7.29835693 27.72400635 7.66650391 28.84521484 C8.88939214 32.38728993 10.25253903 35.56162839 12.19140625 38.7734375 C14 42 14 42 14 46 C14.66 46 15.32 46 16 46 C16.99 48.31 17.98 50.62 19 53 C20.65 53 22.3 53 24 53 C24.144375 53.7425 24.28875 54.485 24.4375 55.25 C24.623125 56.1575 24.80875 57.065 25 58 C25.144375 58.7425 25.28875 59.485 25.4375 60.25 C25.623125 60.8275 25.80875 61.405 26 62 C26.66 62.33 27.32 62.66 28 63 C28.12375 63.598125 28.2475 64.19625 28.375 64.8125 C29.19776186 67.69216652 30.87860635 68.9470384 33 71 C33 71.66 33 72.32 33 73 C33.66 73 34.32 73 35 73 C35 73.66 35 74.32 35 75 C35.66 75 36.32 75 37 75 C41.76744186 79.30232558 41.76744186 79.30232558 43 83 C44.65310893 83.69960924 46.32223699 84.36177315 48 85 C49.49469588 86.1197015 50.9534128 87.28882823 52.375 88.5 C56.26185701 91.63414346 59.178663 92.91765904 64 94 C64.66 94.66 65.32 95.32 66 96 C67.485 96.99 67.485 96.99 69 98 C69 98.66 69 99.32 69 100 C69.99 99.67 70.98 99.34 72 99 C73.98828125 99.85546875 73.98828125 99.85546875 76.3125 101.1875 C88.04973397 107.30170125 101.06420385 109.06403051 114 111 C114 111.33 114 111.66 114 112 C76.38 112 38.76 112 0 112 C0 75.04 0 38.08 0 0 Z " fill="#FEFEFE" transform="translate(0,138)"/>
<path d="M0 0 C38.28 0 76.56 0 116 0 C116 0.33 116 0.66 116 1 C114.22978678 1.336611 112.45880326 1.66917293 110.6875 2 C109.20830078 2.2784375 109.20830078 2.2784375 107.69921875 2.5625 C105 3 105 3 102 3 C101.01 3.33 100.02 3.66 99 4 C97.25246623 4.30609668 95.50207028 4.59603909 93.75 4.875 C89.06343738 5.69839872 85.29017869 6.98624266 81 9 C80.29875 9.165 79.5975 9.33 78.875 9.5 C76.28015227 10.19195939 74.29553284 11.6120034 72 13 C70.31892788 13.71122282 68.63761429 14.42190882 66.953125 15.125 C59.45393207 18.48463843 51.45136084 22.64442488 46.375 29.25 C43.71297822 32.332341 42.8226342 32.38011337 39 33 C37.90833725 34.93330603 37.90833725 34.93330603 37 37 C35.66666667 37.66666667 34.33333333 38.33333333 33 39 C31.83333333 40.91666667 31.83333333 40.91666667 31 43 C30.34 43.99 29.68 44.98 29 46 C28.34 46 27.68 46 27 46 C26.73316406 46.72832031 26.46632813 47.45664062 26.19140625 48.20703125 C25.01267785 50.97027979 23.64194609 53.22086918 21.9375 55.6875 C19.8177976 58.75500089 19.8177976 58.75500089 18 62 C17.34 62 16.68 62 16 62 C15.34 64.64 14.68 67.28 14 70 C13.34 70 12.68 70 12 70 C11.87625 70.763125 11.7525 71.52625 11.625 72.3125 C11 75 11 75 9 78 C8.56261304 79.71444889 8.19151312 81.44667784 7.875 83.1875 C7.70742187 84.08855469 7.53984375 84.98960938 7.3671875 85.91796875 C7.18542969 86.94857422 7.18542969 86.94857422 7 88 C6.34 88 5.68 88 5 88 C4.87625 89.11375 4.7525 90.2275 4.625 91.375 C4.22959602 94.58342084 3.67041428 97.71304608 3 100.875 C1.95617663 105.89158397 1.41261481 110.89660631 1 116 C0.67 116 0.34 116 0 116 C0 77.72 0 39.44 0 0 Z " fill="#FEFEFE" transform="translate(0,0)"/>
<path d="M0 0 C2.35092646 2.58249523 2.98710644 3.39400262 3.0625 6.9375 C1.65350578 10.99871863 -0.40423845 12.86488077 -4 15 C-13.55776862 19.47139578 -23.63477714 22.83004687 -33.5625 26.375 C-36.76215768 27.52221575 -39.96113742 28.67131674 -43.16015625 29.8203125 C-43.93352325 30.09774292 -44.70689026 30.37517334 -45.50369263 30.66101074 C-52.26064697 33.08709094 -58.99936899 35.56096468 -65.72094727 38.08349609 C-68.80939898 39.23463599 -71.79421529 40.19855382 -75 41 C-75 35.39 -75 29.78 -75 24 C-66.20837981 20.51503344 -57.40686878 17.12460186 -48.4921875 13.96875 C-46.98816303 13.4333717 -45.48417562 12.89788929 -43.98022461 12.36230469 C-41.70760741 11.55333715 -39.43386913 10.74873784 -37.15530396 9.95666504 C-34.99431619 9.20525745 -32.83872965 8.43987621 -30.68359375 7.671875 C-30.02394623 7.44705444 -29.36429871 7.22223389 -28.68466187 6.99060059 C-26.65656024 6.28945897 -26.65656024 6.28945897 -24 5 C-23.67 4.01 -23.34 3.02 -23 2 C-37.76594303 -2.04819112 -53.28866482 5.55924393 -66.93139648 10.76391602 C-72.80894355 13 -72.80894355 13 -75 13 C-75 7.06 -75 1.12 -75 -5 C-50.76528341 -12.29394383 -22.1778896 -14.49535268 0 0 Z " fill="#F9F9F9" transform="translate(209,146)"/>
<path d="M0 0 C0 5.28 0 10.56 0 16 C-7.26944324 19.11547567 -14.58166058 22.01125878 -22 24.75 C-22.8247583 25.05558838 -23.6495166 25.36117676 -24.49926758 25.67602539 C-25.28325928 25.96340576 -26.06725098 26.25078613 -26.875 26.546875 C-27.57367188 26.80307617 -28.27234375 27.05927734 -28.9921875 27.32324219 C-30.97776984 27.99250705 -32.96094563 28.52109654 -35 29 C-34.67 29.99 -34.34 30.98 -34 32 C-27.44758436 35.27620782 -19.39564268 33.01849834 -12.8203125 30.85180664 C-10.44343266 30.02383801 -8.07600425 29.17357047 -5.7109375 28.3125 C-2 27 -2 27 0 27 C0.02685095 29.47923801 0.04676547 31.9581884 0.0625 34.4375 C0.07087891 35.14455078 0.07925781 35.85160156 0.08789062 36.58007812 C0.09653588 38.38693559 0.05220011 40.19387603 0 42 C-3.86026309 45.86026309 -16.43213694 44.30666772 -21.63598633 44.3190918 C-35.04221992 44.13875975 -50.42123935 41.87375966 -60.6875 32.5625 C-62 30 -62 30 -62.25 27.0625 C-60.00173204 21.55424349 -55.14651929 18.9825805 -49.86767578 16.56616211 C-46.24742837 15.12178695 -42.60281321 13.76163578 -38.9375 12.4375 C-37.63312758 11.95541651 -36.32909208 11.47242044 -35.02539062 10.98852539 C-27.3179029 8.14166612 -19.57921508 5.39602403 -11.75 2.90234375 C-8.99159418 2.04114098 -8.99159418 2.04114098 -6.375 0.87890625 C-4 0 -4 0 0 0 Z " fill="#F6F6F6" transform="translate(94,129)"/>
<path d="M0 0 C0.92981689 -0.00902344 1.85963379 -0.01804688 2.81762695 -0.02734375 C8.04624749 -0.00508443 12.77917059 0.49392004 17.8515625 1.75976562 C20.64622022 2.43684969 23.46129261 2.76905309 26.3125 3.125 C32.30327421 4.00785094 37.38140034 5.77401142 42.875 8.25 C43.73996094 8.58902344 44.60492188 8.92804687 45.49609375 9.27734375 C47.875 10.25 47.875 10.25 50.4375 11.8125 C52.65646478 13.12112025 54.36575157 13.78532436 56.875 14.25 C56.875 14.91 56.875 15.57 56.875 16.25 C57.865 16.58 58.855 16.91 59.875 17.25 C65.25581832 19.26780687 69.3942583 22.37065022 73.9375 25.8125 C75.54804725 27.00742215 77.20639136 28.13759424 78.875 29.25 C78.875 29.91 78.875 30.57 78.875 31.25 C79.6175 31.4975 80.36 31.745 81.125 32 C84.07624062 33.34147301 85.72314974 34.85905526 87.875 37.25 C87.215 38.9 86.555 40.55 85.875 42.25 C83.83380212 40.63405168 81.83427063 38.9643618 79.875 37.25 C79.875 36.59 79.875 35.93 79.875 35.25 C79.3284375 35.00636719 78.781875 34.76273438 78.21875 34.51171875 C75.34952184 32.96711759 72.94344093 31.06823142 70.375 29.0625 C55.990436 18.13901582 39.63074644 10.74697087 21.875 7.25 C20.93527344 7.04632812 19.99554688 6.84265625 19.02734375 6.6328125 C4.47138028 3.8906568 -11.6681619 4.06337442 -26.125 7.25 C-26.75067871 7.38422363 -27.37635742 7.51844727 -28.02099609 7.65673828 C-40.21788091 10.31643087 -51.25443401 14.17369067 -61.89453125 20.85546875 C-63.75926094 22.02133302 -65.68645413 23.08649328 -67.625 24.125 C-74.84723109 28.2300889 -81.12305683 33.94021505 -86.75 40 C-88.125 41.25 -88.125 41.25 -90.125 41.25 C-90.51365234 42.12978516 -90.51365234 42.12978516 -90.91015625 43.02734375 C-92.21360134 45.41210341 -93.64054167 46.89853318 -95.5625 48.8125 C-115.27169079 70.60390038 -123.47108015 101.79621967 -122.47265625 130.56640625 C-121.39060632 150.73188219 -116.31927853 169.45277657 -105.62890625 186.6953125 C-104.125 189.25 -104.125 189.25 -104.125 191.25 C-105.445 191.58 -106.765 191.91 -108.125 192.25 C-111.125 187.625 -111.125 187.625 -111.125 184.25 C-111.785 184.25 -112.445 184.25 -113.125 184.25 C-113.77604167 182.42708333 -114.42708333 180.60416667 -115.078125 178.78125 C-115.97770209 176.60615315 -116.97924079 174.59694331 -118.0703125 172.515625 C-120.20237289 168.29862158 -121.54638244 164.05827658 -122.75 159.5 C-122.96164795 158.70561523 -123.1732959 157.91123047 -123.39135742 157.09277344 C-123.9860517 154.81569298 -124.56068168 152.53477518 -125.125 150.25 C-125.50205078 148.7340625 -125.50205078 148.7340625 -125.88671875 147.1875 C-129.70716684 128.54588094 -127.97014293 106.29200783 -122.125 88.25 C-121.465 88.25 -120.805 88.25 -120.125 88.25 C-120.09921875 87.6209375 -120.0734375 86.991875 -120.046875 86.34375 C-119.62782132 80.01984898 -118.2792022 75.74441674 -115.125 70.25 C-114.465 70.25 -113.805 70.25 -113.125 70.25 C-112.980625 69.30125 -112.83625 68.3525 -112.6875 67.375 C-112.125 64.25 -112.125 64.25 -111.125 62.25 C-110.465 62.25 -109.805 62.25 -109.125 62.25 C-108.8671875 61.54488281 -108.609375 60.83976562 -108.34375 60.11328125 C-107.02169814 57.00730685 -105.42752146 54.29021935 -103.625 51.4375 C-103.0165625 50.46167969 -102.408125 49.48585937 -101.78125 48.48046875 C-101.2346875 47.74441406 -100.688125 47.00835937 -100.125 46.25 C-99.465 46.25 -98.805 46.25 -98.125 46.25 C-97.898125 45.693125 -97.67125 45.13625 -97.4375 44.5625 C-95.75122733 41.59144815 -93.594646 39.60477875 -91.125 37.25 C-90.3 36.38375 -89.475 35.5175 -88.625 34.625 C-86.22947037 32.34924685 -83.94074026 30.93944416 -81.125 29.25 C-79.43683067 27.60511706 -77.77146685 25.93662458 -76.125 24.25 C-69.04037181 17.67141668 -59.05066444 11.53849571 -49.4375 9.75 C-47.06067429 9.41681247 -47.06067429 9.41681247 -45.34765625 7.8203125 C-42.68664383 5.94030021 -40.41630214 5.35816411 -37.25 4.625 C-36.24195312 4.38523437 -35.23390625 4.14546875 -34.1953125 3.8984375 C-30.14737352 3.04352927 -26.2699236 2.25 -22.125 2.25 C-20.68602498 1.9230929 -19.2487912 1.58850398 -17.8125 1.25 C-11.87029438 0.13633362 -6.02585206 0.02410944 0 0 Z " fill="#E5E5E5" transform="translate(127.125,-0.25)"/>
<path d="M0 0 C3.59476701 3.49205938 6.92026191 7.04033675 10 11 C10 11.66 10 12.32 10 13 C10.556875 13.226875 11.11375 13.45375 11.6875 13.6875 C14.02340863 15.01328598 15.62952666 16.55199145 17.4921875 18.46484375 C33.35976378 34.620174 53.32244497 43.44037085 75 49 C75.95777344 49.24878906 76.91554688 49.49757812 77.90234375 49.75390625 C102.80195117 54.98245818 127.54746955 49.10178325 151 41 C151.0625 43.25 151.0625 43.25 150 46 C143.95211761 49.76852532 136.81527318 51.21740553 129.9375 52.6875 C128.99583984 52.89955078 128.05417969 53.11160156 127.08398438 53.33007812 C100.70261873 59.149767 72.54700879 56.81494424 48.14453125 44.953125 C46.08652918 43.86462051 46.08652918 43.86462051 44 44 C44 43.34 44 42.68 44 42 C42.35 41.67 40.7 41.34 39 41 C39 40.34 39 39.68 39 39 C37.576875 38.7525 37.576875 38.7525 36.125 38.5 C31.3442249 37.17579346 28.0381014 34.04996404 24.33203125 30.875 C22.25105646 29.20185444 20.38253312 28.15139153 18 27 C13.22222222 22.66666667 13.22222222 22.66666667 12 19 C11.34 19 10.68 19 10 19 C10 18.34 10 17.68 10 17 C9.34 17 8.68 17 8 17 C6.52734375 15.3203125 6.52734375 15.3203125 4.9375 13.125 C4.41027344 12.40570313 3.88304687 11.68640625 3.33984375 10.9453125 C2 9 2 9 1 7 C0.443125 6.0409375 0.443125 6.0409375 -0.125 5.0625 C-1 3 -1 3 0 0 Z " fill="#E7E7E7" transform="translate(25,194)"/>
<path d="M0 0 C1.33333333 0 2.66666667 0 4 0 C3.39561893 11.88616108 -1.99580924 22.37408004 -7 33 C-7.66 33 -8.32 33 -9 33 C-9.23847656 33.85207031 -9.47695312 34.70414063 -9.72265625 35.58203125 C-11.13779828 39.36872629 -13.10114231 42.4301871 -15.4375 45.6875 C-16.03014648 46.53924805 -16.03014648 46.53924805 -16.63476562 47.40820312 C-18.58028272 50.1694778 -20.54855612 52.67939161 -23 55 C-23.94581314 56.11802001 -24.88308295 57.24331312 -25.8125 58.375 C-28.63078614 61.688579 -31.58297005 64.3099977 -35 67 C-35.9075 67.763125 -36.815 68.52625 -37.75 69.3125 C-40 71 -40 71 -42 71 C-42 71.66 -42 72.32 -42 73 C-42.639375 73.28875 -43.27875 73.5775 -43.9375 73.875 C-46.15206079 74.82823451 -46.15206079 74.82823451 -47 77 C-48.70703125 78.10546875 -48.70703125 78.10546875 -50.8125 79.1875 C-51.84310547 79.73470703 -51.84310547 79.73470703 -52.89453125 80.29296875 C-55.39118555 81.13136287 -56.58148432 80.99153897 -59 80 C-59.33 79.34 -59.66 78.68 -60 78 C-59.24976563 77.5875 -58.49953125 77.175 -57.7265625 76.75 C-51.35996992 73.1577664 -45.62903246 69.3396368 -40.05859375 64.6015625 C-38 63 -38 63 -35 62 C-34.71125 61.401875 -34.4225 60.80375 -34.125 60.1875 C-33 58 -33 58 -30.7265625 56.2265625 C-14.42257817 42.91242057 -4.79104869 19.83333562 0 0 Z " fill="#E3E3E3" transform="translate(242,153)"/>
<path d="M0 0 C2.86820911 1.43410455 4.16461639 3.39493939 6 6 C6.6875 8.3125 6.6875 8.3125 7 11 C7.16757813 12.13566406 7.33515625 13.27132812 7.5078125 14.44140625 C8.17833218 19.82944523 8.19134883 25.20156834 8.1875 30.625 C8.18737915 32.20982178 8.18737915 32.20982178 8.18725586 33.82666016 C8.04851373 52.90297254 8.04851373 52.90297254 5 59 C3.68 59 2.36 59 1 59 C1.2165625 57.43378906 1.2165625 57.43378906 1.4375 55.8359375 C3.60691796 39.10924294 4.3369372 22.56558344 0.65625 6.01953125 C0 3 0 3 0 0 Z " fill="#E6E6E6" transform="translate(242,93)"/>
<path d="M0 0 C0.99 0 1.98 0 3 0 C3.13535156 1.13953125 3.27070312 2.2790625 3.41015625 3.453125 C5.63533548 20.43666491 10.44480867 35.84646559 19.49609375 50.4453125 C21 53 21 53 21 55 C19.02 55.495 19.02 55.495 17 56 C14 51.375 14 51.375 14 48 C13.34 48 12.68 48 12 48 C11.34895833 46.17708333 10.69791667 44.35416667 10.046875 42.53125 C9.14835752 40.3587152 8.14842823 38.35222921 7.05859375 36.2734375 C4.90618593 32.01621079 3.53985835 27.72389696 2.3125 23.125 C2.09899902 22.33851074 1.88549805 21.55202148 1.66552734 20.74169922 C-1.99245154 6.83564145 -1.99245154 6.83564145 0 0 Z " fill="#E2E2E2" transform="translate(2,136)"/>
<path d="M0 0 C0.93779297 -0.01224609 1.87558594 -0.02449219 2.84179688 -0.03710938 C8.89055442 -0.04971971 14.20535013 0.6676447 20.0625 2.1875 C20.0625 3.1775 20.0625 4.1675 20.0625 5.1875 C19.15709473 5.18226318 18.25168945 5.17702637 17.31884766 5.17163086 C-5.28833346 4.99574566 -5.28833346 4.99574566 -27.8671875 5.96875 C-29.88681894 6.11264232 -31.91274911 6.1875 -33.9375 6.1875 C-34.2675 5.5275 -34.5975 4.8675 -34.9375 4.1875 C-27.3125 3.1875 -27.3125 3.1875 -23.9375 3.1875 C-23.215625 2.878125 -22.49375 2.56875 -21.75 2.25 C-14.8779491 -0.34610812 -7.25092493 0.00496299 0 0 Z " fill="#EAEAEA" transform="translate(126.9375,-0.1875)"/>
<path d="M0 0 C3.41622347 0.29316103 4.76138978 0.76388831 7.23828125 3.21484375 C7.92277344 4.11332031 8.60726562 5.01179688 9.3125 5.9375 C10.00988281 6.83339844 10.70726562 7.72929688 11.42578125 8.65234375 C13 11 13 11 13 13 C13.66 13 14.32 13 15 13 C15.391875 13.804375 15.78375 14.60875 16.1875 15.4375 C17.56835262 18.15158962 18.99979942 20.79062042 20.5 23.4375 C22.61533845 27.20804286 24.38034806 30.99349257 26 35 C24.68 35.66 23.36 36.32 22 37 C21.53851563 36.00742188 21.07703125 35.01484375 20.6015625 33.9921875 C15.65125294 23.59190134 10.11313522 12.86361949 1.703125 4.796875 C0 3 0 3 0 0 Z " fill="#E7E7E7" transform="translate(214,41)"/>
<path d="M0 0 C2.4375 1.5625 2.4375 1.5625 4 4 C4 7.81153499 3.80074051 10.05097421 1.3125 13 C-1.87167993 14.37694267 -3.70924801 13.980224 -7 13 C-8.875 11.8125 -8.875 11.8125 -10 10 C-10.54068562 6.36968224 -10.46379841 4.67785921 -8.375 1.625 C-5.28813568 -0.48706506 -3.6717087 -0.61195145 0 0 Z " fill="#B2B2B2" transform="translate(204,175)"/>
<path d="M0 0 C0.66 0.33 1.32 0.66 2 1 C1.48050781 1.969375 0.96101563 2.93875 0.42578125 3.9375 C-4.52773471 13.38816192 -8.15715029 22.7220049 -11 33 C-11.66 33 -12.32 33 -13 33 C-14.35439668 30.29120665 -14.06501451 27.99066732 -14 25 C-13.34 25 -12.68 25 -12 25 C-11.97421875 24.3709375 -11.9484375 23.741875 -11.921875 23.09375 C-11.50282132 16.76984898 -10.1542022 12.49441674 -7 7 C-6.34 7 -5.68 7 -5 7 C-4.67 6.01 -4.34 5.02 -4 4 C-3.34 4 -2.68 4 -2 4 C-1.34 2.68 -0.68 1.36 0 0 Z " fill="#E3E3E3" transform="translate(19,63)"/>
<path d="M0 0 C0.0625 2.25 0.0625 2.25 -1 5 C-6.81227206 8.93912277 -17.39624311 12.83218823 -24.35546875 11.57421875 C-24.89816406 11.38472656 -25.44085938 11.19523438 -26 11 C-26 10.01 -26 9.02 -26 8 C-24.85402344 7.67386719 -23.70804688 7.34773437 -22.52734375 7.01171875 C-20.99732777 6.5705485 -19.46738365 6.12912894 -17.9375 5.6875 C-17.18533203 5.47416016 -16.43316406 5.26082031 -15.65820312 5.04101562 C-12.02535935 3.98733366 -8.53006771 2.85956253 -5.06640625 1.33203125 C-2 0 -2 0 0 0 Z " fill="#E4E4E4" transform="translate(176,235)"/>
<path d="M0 0 C3.59476701 3.49205938 6.92026191 7.04033675 10 11 C10 11.66 10 12.32 10 13 C10.61875 13.268125 11.2375 13.53625 11.875 13.8125 C14 15 14 15 16 18 C15.67 18.66 15.34 19.32 15 20 C14.34 20 13.68 20 13 20 C13 18.68 13 17.36 13 16 C12.34 16 11.68 16 11 16 C11.33 16.99 11.66 17.98 12 19 C11.34 19 10.68 19 10 19 C10 18.34 10 17.68 10 17 C9.34 17 8.68 17 8 17 C6.52734375 15.3203125 6.52734375 15.3203125 4.9375 13.125 C4.41027344 12.40570313 3.88304687 11.68640625 3.33984375 10.9453125 C2 9 2 9 1 7 C0.443125 6.0409375 0.443125 6.0409375 -0.125 5.0625 C-1 3 -1 3 0 0 Z " fill="#E0E0E0" transform="translate(25,194)"/>
<path d="M0 0 C2 0.875 2 0.875 4 2 C4.66 2.33 5.32 2.66 6 3 C6 3.66 6 4.32 6 5 C6.7425 5.2475 7.485 5.495 8.25 5.75 C11.20124062 7.09147301 12.84814974 8.60905526 15 11 C14.34 12.65 13.68 14.3 13 16 C10.95880212 14.38405168 8.95927063 12.7143618 7 11 C7 10.34 7 9.68 7 9 C6.443125 8.7525 5.88625 8.505 5.3125 8.25 C2.57589087 6.77075182 0.32349131 5.06532561 -2 3 C-2 2.34 -2 1.68 -2 1 C-1.34 0.67 -0.68 0.34 0 0 Z " fill="#E2E2E2" transform="translate(200,26)"/>
<path d="M0 0 C0.99 0.33 1.98 0.66 3 1 C5.14255793 0.61067144 5.14255793 0.61067144 7 0 C3.45117602 3.65972473 -0.27681821 7.02230742 -4.13671875 10.3515625 C-5.60646512 11.65184126 -7.00553418 13.0319956 -8.375 14.4375 C-10 16 -10 16 -12 16 C-12.66 17.32 -13.32 18.64 -14 20 C-14.66 18.68 -15.32 17.36 -16 16 C-15.34 16 -14.68 16 -14 16 C-14 15.34 -14 14.68 -14 14 C-12.6796875 12.73828125 -12.6796875 12.73828125 -10.875 11.3125 C-7.11642532 8.21091195 -4.08304138 4.75551685 -1 1 C-0.67 0.67 -0.34 0.34 0 0 Z " fill="#DFDFDF" transform="translate(49,25)"/>
<path d="M0 0 C0.99 0.33 1.98 0.66 3 1 C4.35088173 5.05264518 4.223454 8.81845796 4.25 13.0625 C4.270625 13.89072266 4.29125 14.71894531 4.3125 15.57226562 C4.31765625 16.36439453 4.3228125 17.15652344 4.328125 17.97265625 C4.3374707 18.69718994 4.34681641 19.42172363 4.35644531 20.16821289 C4.23881836 20.77270264 4.12119141 21.37719238 4 22 C3.01 22.66 2.02 23.32 1 24 C-0.25248502 21.49502996 -0.11374406 19.79146726 -0.09765625 16.9921875 C-0.09443359 16.00605469 -0.09121094 15.01992187 -0.08789062 14.00390625 C-0.07951172 12.97136719 -0.07113281 11.93882813 -0.0625 10.875 C-0.05798828 9.83472656 -0.05347656 8.79445313 -0.04882812 7.72265625 C-0.03701952 5.14838038 -0.02055075 2.57421854 0 0 Z " fill="#EDEDED" transform="translate(0,116)"/>
<path d="M0 0 C0.66 0 1.32 0 2 0 C2.33 1.32 2.66 2.64 3 4 C4.32 4.33 5.64 4.66 7 5 C7.99 3.68 8.98 2.36 10 1 C10.125 3.875 10.125 3.875 10 7 C8 9 8 9 5.0625 9.375 C2 9 2 9 0.0625 7.3125 C-1.25960381 4.43497994 -0.90991047 2.97788882 0 0 Z " fill="#1F1F1F" transform="translate(196,178)"/>
<path d="M0 0 C1.33333333 0 2.66666667 0 4 0 C3.58846263 4.97093824 3.20399168 9.44508386 1 14 C-0.32 13.67 -1.64 13.34 -3 13 C-2.01 8.71 -1.02 4.42 0 0 Z " fill="#DEDEDE" transform="translate(242,153)"/>
<path d="M0 0 C0.66 0.33 1.32 0.66 2 1 C-0.31 5.62 -2.62 10.24 -5 15 C-5.99 14.01 -6.98 13.02 -8 12 C-7.6875 9.3125 -7.6875 9.3125 -7 7 C-6.34 7 -5.68 7 -5 7 C-4.67 6.01 -4.34 5.02 -4 4 C-3.34 4 -2.68 4 -2 4 C-1.34 2.68 -0.68 1.36 0 0 Z " fill="#DFDFDF" transform="translate(19,63)"/>
<path d="M0 0 C0.33 0.66 0.66 1.32 1 2 C1.99 2.33 2.98 2.66 4 3 C5.28317892 6.84953676 5.06643637 9.94738135 5 14 C4.01 14.495 4.01 14.495 3 15 C2.29911844 13.25531628 1.61475991 11.50398839 0.9375 9.75 C0.55464844 8.77546875 0.17179688 7.8009375 -0.22265625 6.796875 C-1.01113787 3.95992605 -1.02437812 2.70590448 0 0 Z " fill="#E4E4E4" transform="translate(6,158)"/>
<path d="M0 0 C2.12161334 2.12161334 2.92986249 3.7733159 4.125 6.5 C4.47820313 7.2940625 4.83140625 8.088125 5.1953125 8.90625 C6 11 6 11 6 13 C5.01 13.33 4.02 13.66 3 14 C-0.97674419 9.17970402 -0.97674419 9.17970402 -1.04296875 5.8203125 C-0.78224541 3.86662563 -0.39933709 1.93012925 0 0 Z " fill="#DDDDDD" transform="translate(11,167)"/>
<path d="M0 0 C2.88758942 1.44379471 4.19337585 3.35028458 6 6 C6.25 8.8125 6.25 8.8125 6 11 C5.34 11 4.68 11 4 11 C3.34 12.32 2.68 13.64 2 15 C1.34 10.05 0.68 5.1 0 0 Z " fill="#D7D7D7" transform="translate(242,93)"/>
<path d="M0 0 C1.1171875 1.703125 1.1171875 1.703125 2 4 C1.3203125 6.359375 1.3203125 6.359375 0.125 8.75 C-0.45894531 9.94882813 -0.45894531 9.94882813 -1.0546875 11.171875 C-1.36664063 11.77515625 -1.67859375 12.3784375 -2 13 C-2.99 12.67 -3.98 12.34 -5 12 C-4.49287967 8.28111761 -3.88391785 5.26545761 -2 2 C-1.34 2 -0.68 2 0 2 C0 1.34 0 0.68 0 0 Z " fill="#E5E5E5" transform="translate(241,164)"/>
<path d="M0 0 C-1.28519565 2.86697492 -2.57129254 4.97607712 -5 7 C-5.66 7 -6.32 7 -7 7 C-7.66 8.32 -8.32 9.64 -9 11 C-9.66 9.68 -10.32 8.36 -11 7 C-10.34 7 -9.68 7 -9 7 C-9 6.34 -9 5.68 -9 5 C-3.64285714 0 -3.64285714 0 0 0 Z " fill="#D2D2D2" transform="translate(44,34)"/>
<path d="M0 0 C9 0 9 0 13 2 C6.07 3.485 6.07 3.485 -1 5 C-0.67 3.35 -0.34 1.7 0 0 Z " fill="#DADADA" transform="translate(88,5)"/>
<path d="M0 0 C1.98 0 3.96 0 6 0 C6 2.31 6 4.62 6 7 C4.35 6.01 2.7 5.02 1 4 C0.67 4.99 0.34 5.98 0 7 C0 4.69 0 2.38 0 0 Z " fill="#BDBDBD" transform="translate(198,178)"/>
<path d="M0 0 C0.66 0 1.32 0 2 0 C2.80967438 2.91482778 3.21845993 4.46113217 2.0625 7.3125 C1.5365625 8.1478125 1.5365625 8.1478125 1 9 C-0.5625 7.75 -0.5625 7.75 -2 6 C-1.7181953 3.67511119 -1.04553582 2.09107165 0 0 Z " fill="#EAEAEA" transform="translate(10,75)"/>
<path d="M0 0 C0.66 0.33 1.32 0.66 2 1 C0.8141763 4.37503669 -0.27573689 6.64722731 -3 9 C-3.66 8.34 -4.32 7.68 -5 7 C-3.70700306 4.11562221 -2.34058637 2.12780579 0 0 Z " fill="#ECECEC" transform="translate(223,197)"/>
<path d="M0 0 C2 3 2 3 1.625 5.1875 C1.41875 5.785625 1.2125 6.38375 1 7 C-1.49064888 7.68707555 -3.37886292 8 -6 8 C-4.02 5.36 -2.04 2.72 0 0 Z " fill="#D5D5D5" transform="translate(226,191)"/>
<path d="M0 0 C3.125 -0.1875 3.125 -0.1875 6 0 C6.66 1.32 7.32 2.64 8 4 C7.34 4.66 6.68 5.32 6 6 C6 5.01 6 4.02 6 3 C3.36 3 0.72 3 -2 3 C-1.34 2.01 -0.68 1.02 0 0 Z " fill="#707070" transform="translate(198,175)"/>
<path d="M0 0 C0.33 0.99 0.66 1.98 1 3 C-3.25566547 4.16063604 -6.6835078 3.76173392 -11 3 C-11 2.67 -11 2.34 -11 2 C-7.17679443 0.57741188 -4.08718695 -0.24042276 0 0 Z " fill="#D0D0D0" transform="translate(153,3)"/>
<path d="M0 0 C0.66 0.66 1.32 1.32 2 2 C1.67 2.99 1.34 3.98 1 5 C-0.65 5.33 -2.3 5.66 -4 6 C-4.66 5.01 -5.32 4.02 -6 3 C-4.02 2.01 -2.04 1.02 0 0 Z " fill="#DFDFDF" transform="translate(188,228)"/>
<path d="M0 0 C0.66 0.33 1.32 0.66 2 1 C2 4 2 4 0.6875 5.38671875 C-0.875 6.59114583 -2.4375 7.79557292 -4 9 C-4.33 8.34 -4.66 7.68 -5 7 C-4.0625 4.875 -4.0625 4.875 -3 3 C-2.34 3 -1.68 3 -1 3 C-0.67 2.01 -0.34 1.02 0 0 Z " fill="#EEEEEE" transform="translate(19,59)"/>
<path d="M0 0 C-0.33 0.99 -0.66 1.98 -1 3 C-2.65 3.33 -4.3 3.66 -6 4 C-6.66 3.01 -7.32 2.02 -8 1 C-4.93251126 -0.86240388 -3.40254489 -1.2151946 0 0 Z " fill="#ECECEC" transform="translate(88,7)"/>
<path d="M0 0 C3.16115776 1.36983503 3.9927092 1.9890638 6 5 C5.67 5.66 5.34 6.32 5 7 C4.34 7 3.68 7 3 7 C3 5.68 3 4.36 3 3 C2.34 3 1.68 3 1 3 C1.33 3.99 1.66 4.98 2 6 C1.34 6 0.68 6 0 6 C-0.38218767 4.34385343 -0.71395102 2.67542976 -1 1 C-0.67 0.67 -0.34 0.34 0 0 Z " fill="#D2D2D2" transform="translate(35,207)"/>
<path d="M0 0 C0.99 0.33 1.98 0.66 3 1 C1.68 3.31 0.36 5.62 -1 8 C-1.66 6.68 -2.32 5.36 -3 4 C-2.01 2.68 -1.02 1.36 0 0 Z " fill="#E2E2E2" transform="translate(23,54)"/>
<path d="M0 0 C1.67542976 0.28604898 3.34385343 0.61781233 5 1 C5 2.98 5 4.96 5 7 C4.34 7 3.68 7 3 7 C1.61061923 5.03852126 0.2739589 3.03833424 -1 1 C-0.67 0.67 -0.34 0.34 0 0 Z " fill="#E7E7E7" transform="translate(30,204)"/>
<path d="M0 0 C1 2 1 2 1 6 C-1.31 6.33 -3.62 6.66 -6 7 C-5.67 6.34 -5.34 5.68 -5 5 C-4.34 5 -3.68 5 -3 5 C-2.5359375 4.0409375 -2.5359375 4.0409375 -2.0625 3.0625 C-1 1 -1 1 0 0 Z " fill="#CECECE" transform="translate(210,210)"/>
<path d="M0 0 C2.8203125 -0.29296875 2.8203125 -0.29296875 6.125 -0.1875 C7.76855469 -0.14689453 7.76855469 -0.14689453 9.4453125 -0.10546875 C10.28835937 -0.07066406 11.13140625 -0.03585937 12 0 C12 0.33 12 0.66 12 1 C10.22978678 1.336611 8.45880326 1.66917293 6.6875 2 C5.20830078 2.2784375 5.20830078 2.2784375 3.69921875 2.5625 C1 3 1 3 -2 3 C-1.34 2.01 -0.68 1.02 0 0 Z " fill="#F7F7F7" transform="translate(104,0)"/>
<path d="M0 0 C1.32 0 2.64 0 4 0 C3.67 1.32 3.34 2.64 3 4 C1.68 4.33 0.36 4.66 -1 5 C-0.67 3.35 -0.34 1.7 0 0 Z " fill="#EDEDED" transform="translate(211,210)"/>
<path d="M0 0 C0.66 0.33 1.32 0.66 2 1 C0.70700306 3.88437779 -0.65941363 5.87219421 -3 8 C-3 4.72224847 -2.36665159 2.36665159 0 0 Z " fill="#EEEEEE" transform="translate(230,188)"/>
<path d="M0 0 C0.66 0 1.32 0 2 0 C1.30058404 3.14737182 0.23921302 6.02588876 -1 9 C-1.99 8.67 -2.98 8.34 -4 8 C-4 7.34 -4 6.68 -4 6 C-3.34 5.67 -2.68 5.34 -2 5 C-1.27840576 3.35636866 -0.60648579 1.68949614 0 0 Z " fill="#EEEEEE" transform="translate(240,168)"/>
<path d="M0 0 C2.475 0.495 2.475 0.495 5 1 C4.67 2.65 4.34 4.3 4 6 C2 4.6875 2 4.6875 0 3 C0 2.01 0 1.02 0 0 Z " fill="#DCDCDC" transform="translate(214,41)"/>
<path d="M0 0 C0.66 0.33 1.32 0.66 2 1 C0.68 2.65 -0.64 4.3 -2 6 C-3.65 5.67 -5.3 5.34 -7 5 C-2.25 1.125 -2.25 1.125 0 0 Z " fill="#EFEFEF" transform="translate(68,13)"/>
<path d="M0 0 C-0.33 1.65 -0.66 3.3 -1 5 C-2.98 4.34 -4.96 3.68 -7 3 C-2.5 0 -2.5 0 0 0 Z " fill="#D8D8D8" transform="translate(176,235)"/>
<path d="M0 0 C0.66 0 1.32 0 2 0 C2 1.32 2 2.64 2 4 C2.33 3.34 2.66 2.68 3 2 C3.99 2.33 4.98 2.66 6 3 C6 3.99 6 4.98 6 6 C4.35 5.67 2.7 5.34 1 5 C0.67 3.35 0.34 1.7 0 0 Z " fill="#EDEDED" transform="translate(36,210)"/>
<path d="M0 0 C0.66 0 1.32 0 2 0 C2 2.64 2 5.28 2 8 C0.4375 6.8125 0.4375 6.8125 -1 5 C-0.6875 2.3125 -0.6875 2.3125 0 0 Z " fill="#131313" transform="translate(196,178)"/>
<path d="M0 0 C1.32 0 2.64 0 4 0 C4 1.98 4 3.96 4 6 C3.01 6.495 3.01 6.495 2 7 C1.34 4.69 0.68 2.38 0 0 Z " fill="#EDEDED" transform="translate(7,166)"/>
<path d="M0 0 C2.31 0 4.62 0 7 0 C6.34 1.65 5.68 3.3 5 5 C3.35 3.35 1.7 1.7 0 0 Z " fill="#CACACA" transform="translate(208,37)"/>
<path d="M0 0 C0.99 0 1.98 0 3 0 C3 0.66 3 1.32 3 2 C4.98 2 6.96 2 9 2 C9 2.33 9 2.66 9 3 C5.7 3 2.4 3 -1 3 C-0.67 2.01 -0.34 1.02 0 0 Z " fill="#DADADA" transform="translate(105,2)"/>
<path d="M0 0 C2.64 0.33 5.28 0.66 8 1 C8 1.99 8 2.98 8 4 C7.01 4.33 6.02 4.66 5 5 C4.67 3.68 4.34 2.36 4 1 C2.68 0.67 1.36 0.34 0 0 Z " fill="#D5D5D5" transform="translate(92,242)"/>
</svg>
